<mxfile host="app.diagrams.net" modified="2023-06-27T17:16:01.014Z" agent="Mozilla/5.0 (Macintosh; Intel Mac OS X 10_15_7) AppleWebKit/537.36 (KHTML, like Gecko) Chrome/114.0.0.0 Safari/537.36" etag="CzgHI_9cWZfPwfFSOdEL" version="21.5.0" type="github">
  <diagram id="6a731a19-8d31-9384-78a2-239565b7b9f0" name="Page-1">
    <mxGraphModel dx="1735" dy="1178" grid="1" gridSize="10" guides="1" tooltips="1" connect="1" arrows="1" fold="1" page="1" pageScale="1" pageWidth="1169" pageHeight="827" background="none" math="0" shadow="0">
      <root>
        <mxCell id="0" />
        <mxCell id="1" parent="0" />
        <mxCell id="Lj3a9mNOU1nQvBeXicrp-2257" value="&lt;font style=&quot;font-size: 28px;&quot;&gt;Lab&lt;/font&gt;" style="ellipse;shape=cloud;whiteSpace=wrap;html=1;" vertex="1" parent="1">
          <mxGeometry x="111" y="80" width="170" height="130" as="geometry" />
        </mxCell>
        <mxCell id="Lj3a9mNOU1nQvBeXicrp-2258" value="&lt;span style=&quot;font-size: 16px;&quot;&gt;NAT 64 Router&lt;br&gt;10.112.1.1&lt;br&gt;&lt;/span&gt;" style="shape=mxgraph.cisco.routers.router;sketch=0;html=1;pointerEvents=1;dashed=0;fillColor=#036897;strokeColor=#ffffff;strokeWidth=2;verticalLabelPosition=top;verticalAlign=bottom;align=left;outlineConnect=0;labelPosition=left;" vertex="1" parent="1">
          <mxGeometry x="157" y="361" width="78" height="53" as="geometry" />
        </mxCell>
        <mxCell id="Lj3a9mNOU1nQvBeXicrp-2259" value="&lt;font style=&quot;font-size: 16px;&quot;&gt;Test Device&lt;/font&gt;" style="shape=mxgraph.cisco.routers.router;sketch=0;html=1;pointerEvents=1;dashed=0;fillColor=#036897;strokeColor=#ffffff;strokeWidth=2;verticalLabelPosition=top;verticalAlign=bottom;align=right;outlineConnect=0;labelPosition=left;" vertex="1" parent="1">
          <mxGeometry x="470" y="361" width="78" height="53" as="geometry" />
        </mxCell>
        <mxCell id="Lj3a9mNOU1nQvBeXicrp-2260" value="&lt;font style=&quot;font-size: 16px;&quot;&gt;Endpoint&lt;/font&gt;" style="shape=mxgraph.cisco.routers.router;sketch=0;html=1;pointerEvents=1;dashed=0;fillColor=#036897;strokeColor=#ffffff;strokeWidth=2;verticalLabelPosition=bottom;verticalAlign=top;align=center;outlineConnect=0;" vertex="1" parent="1">
          <mxGeometry x="720" y="140" width="78" height="53" as="geometry" />
        </mxCell>
        <mxCell id="Lj3a9mNOU1nQvBeXicrp-2261" value="&lt;font style=&quot;font-size: 16px;&quot;&gt;Endpoint&lt;/font&gt;" style="shape=mxgraph.cisco.routers.router;sketch=0;html=1;pointerEvents=1;dashed=0;fillColor=#036897;strokeColor=#ffffff;strokeWidth=2;verticalLabelPosition=bottom;verticalAlign=top;align=center;outlineConnect=0;" vertex="1" parent="1">
          <mxGeometry x="920" y="361" width="78" height="53" as="geometry" />
        </mxCell>
        <mxCell id="Lj3a9mNOU1nQvBeXicrp-2262" value="&lt;font style=&quot;font-size: 16px;&quot;&gt;Endpoint&lt;/font&gt;" style="shape=mxgraph.cisco.routers.router;sketch=0;html=1;pointerEvents=1;dashed=0;fillColor=#036897;strokeColor=#ffffff;strokeWidth=2;verticalLabelPosition=bottom;verticalAlign=top;align=center;outlineConnect=0;" vertex="1" parent="1">
          <mxGeometry x="650" y="660" width="78" height="53" as="geometry" />
        </mxCell>
        <mxCell id="Lj3a9mNOU1nQvBeXicrp-2276" value="&lt;font style=&quot;font-size: 16px;&quot;&gt;vlan2-services2&lt;br&gt;10.112.2.0&lt;br&gt;2005:1117:1:2::/64&lt;br&gt;&lt;/font&gt;" style="endArrow=none;html=1;rounded=0;entryX=1;entryY=0.5;entryDx=0;entryDy=0;entryPerimeter=0;exitX=0;exitY=0.5;exitDx=0;exitDy=0;exitPerimeter=0;" edge="1" parent="1" source="Lj3a9mNOU1nQvBeXicrp-2260" target="Lj3a9mNOU1nQvBeXicrp-2259">
          <mxGeometry width="50" height="50" relative="1" as="geometry">
            <mxPoint x="530" y="570" as="sourcePoint" />
            <mxPoint x="580" y="520" as="targetPoint" />
          </mxGeometry>
        </mxCell>
        <mxCell id="Lj3a9mNOU1nQvBeXicrp-2277" value="" style="endArrow=none;html=1;rounded=0;entryX=1;entryY=0.5;entryDx=0;entryDy=0;entryPerimeter=0;" edge="1" parent="1" target="Lj3a9mNOU1nQvBeXicrp-2260">
          <mxGeometry width="50" height="50" relative="1" as="geometry">
            <mxPoint x="860" y="167" as="sourcePoint" />
            <mxPoint x="580" y="520" as="targetPoint" />
          </mxGeometry>
        </mxCell>
        <mxCell id="Lj3a9mNOU1nQvBeXicrp-2278" value="&lt;font style=&quot;font-size: 16px;&quot;&gt;vlan3-services3&lt;br&gt;10.112.3.0&lt;br&gt;2005:1117:1:3::/64&lt;/font&gt;" style="endArrow=none;html=1;rounded=0;" edge="1" parent="1">
          <mxGeometry width="50" height="50" relative="1" as="geometry">
            <mxPoint x="860" y="470" as="sourcePoint" />
            <mxPoint x="860" y="110" as="targetPoint" />
          </mxGeometry>
        </mxCell>
        <mxCell id="Lj3a9mNOU1nQvBeXicrp-2279" value="" style="endArrow=none;html=1;rounded=0;entryX=0;entryY=0.5;entryDx=0;entryDy=0;entryPerimeter=0;" edge="1" parent="1" target="Lj3a9mNOU1nQvBeXicrp-2261">
          <mxGeometry width="50" height="50" relative="1" as="geometry">
            <mxPoint x="860" y="388" as="sourcePoint" />
            <mxPoint x="580" y="520" as="targetPoint" />
          </mxGeometry>
        </mxCell>
        <mxCell id="Lj3a9mNOU1nQvBeXicrp-2280" value="" style="endArrow=none;html=1;rounded=0;entryX=0.5;entryY=1;entryDx=0;entryDy=0;entryPerimeter=0;" edge="1" parent="1" target="Lj3a9mNOU1nQvBeXicrp-2258">
          <mxGeometry width="50" height="50" relative="1" as="geometry">
            <mxPoint x="196" y="530" as="sourcePoint" />
            <mxPoint x="240" y="490" as="targetPoint" />
          </mxGeometry>
        </mxCell>
        <mxCell id="Lj3a9mNOU1nQvBeXicrp-2281" value="" style="endArrow=none;html=1;rounded=0;entryX=0.5;entryY=1;entryDx=0;entryDy=0;entryPerimeter=0;" edge="1" parent="1">
          <mxGeometry width="50" height="50" relative="1" as="geometry">
            <mxPoint x="508" y="530" as="sourcePoint" />
            <mxPoint x="508.09" y="414" as="targetPoint" />
          </mxGeometry>
        </mxCell>
        <mxCell id="Lj3a9mNOU1nQvBeXicrp-2282" value="&lt;span style=&quot;font-size: 16px;&quot;&gt;int vlan 256&lt;br&gt;10.112.1.0&lt;br&gt;2005:1117:1:1::/64&lt;br&gt;&lt;/span&gt;" style="endArrow=none;html=1;rounded=0;" edge="1" parent="1">
          <mxGeometry width="50" height="50" relative="1" as="geometry">
            <mxPoint x="130" y="530" as="sourcePoint" />
            <mxPoint x="770" y="530" as="targetPoint" />
          </mxGeometry>
        </mxCell>
        <mxCell id="Lj3a9mNOU1nQvBeXicrp-2283" value="" style="endArrow=none;html=1;rounded=0;entryX=0.5;entryY=0;entryDx=0;entryDy=0;entryPerimeter=0;" edge="1" parent="1" target="Lj3a9mNOU1nQvBeXicrp-2262">
          <mxGeometry width="50" height="50" relative="1" as="geometry">
            <mxPoint x="689" y="530" as="sourcePoint" />
            <mxPoint x="580" y="520" as="targetPoint" />
          </mxGeometry>
        </mxCell>
      </root>
    </mxGraphModel>
  </diagram>
</mxfile>
